<?xml version="1.0" encoding="UTF-8" standalone="no"?>
<svg
   xmlns:osb="http://www.openswatchbook.org/uri/2009/osb"
   xmlns:dc="http://purl.org/dc/elements/1.1/"
   xmlns:cc="http://creativecommons.org/ns#"
   xmlns:rdf="http://www.w3.org/1999/02/22-rdf-syntax-ns#"
   xmlns:svg="http://www.w3.org/2000/svg"
   xmlns="http://www.w3.org/2000/svg"
   id="svg8"
   version="1.1"
   viewBox="0 0 297 210"
   height="210mm"
   width="297mm">
  <defs
     id="defs2">
    <linearGradient
       osb:paint="solid"
       id="linearGradient1327">
      <stop
         id="stop1325"
         offset="0"
         style="stop-color:#000000;stop-opacity:1;" />
    </linearGradient>
    <linearGradient
       osb:paint="solid"
       id="linearGradient858">
      <stop
         id="stop856"
         offset="0"
         style="stop-color:#ffaaaa;stop-opacity:1;" />
    </linearGradient>
  </defs>
  <metadata
     id="metadata5">
    <rdf:RDF>
      <cc:Work
         rdf:about="">
        <dc:format>image/svg+xml</dc:format>
        <dc:type
           rdf:resource="http://purl.org/dc/dcmitype/StillImage" />
        <dc:title></dc:title>
      </cc:Work>
    </rdf:RDF>
  </metadata>
  <rect
     style="opacity:1;fill:#f2f2f2;fill-opacity:1;fill-rule:evenodd;stroke:none;stroke-width:4.42168474;stroke-miterlimit:4;stroke-dasharray:none;stroke-opacity:1"
     id="rect1443-7"
     width="52.384827"
     height="158.49081"
     x="228.64828"
     y="18.945501" />
  <rect
     style="opacity:1;fill:#f2f2f2;fill-opacity:1;fill-rule:evenodd;stroke:none;stroke-width:5.9321084;stroke-miterlimit:4;stroke-dasharray:none;stroke-opacity:1"
     id="rect1443-8"
     width="93.811607"
     height="159.29263"
     x="121.21252"
     y="18.158119" />
  <rect
     style="opacity:1;fill:#f2f2f2;fill-opacity:1;fill-rule:evenodd;stroke:none;stroke-width:4.44399786;stroke-miterlimit:4;stroke-dasharray:none;stroke-opacity:1"
     id="rect1443"
     width="52.384827"
     height="160.09444"
     x="57.195675"
     y="17.298668" />
  <text
     xml:space="preserve"
     style="font-style:normal;font-weight:normal;font-size:4.60243416px;line-height:125%;font-family:sans-serif;letter-spacing:0px;word-spacing:0px;fill:#93a7ac;fill-opacity:1;stroke:none;stroke-width:0.11506086px;stroke-linecap:butt;stroke-linejoin:miter;stroke-opacity:1"
     x="163.81572"
     y="56.30521"
     id="text864"
     transform="scale(0.8165887,1.2246067)"><tspan
       id="tspan862"
       x="163.81572"
       y="56.30521"
       style="fill:#93a7ac;stroke-width:0.11506086px">BACKEND</tspan></text>
  <text
     xml:space="preserve"
     style="font-style:normal;font-weight:normal;font-size:5.41512489px;line-height:125%;font-family:sans-serif;letter-spacing:0px;word-spacing:0px;fill:#93a7ac;fill-opacity:1;stroke:none;stroke-width:0.13537812px;stroke-linecap:butt;stroke-linejoin:miter;stroke-opacity:1"
     x="107.69492"
     y="77.427429"
     id="text864-7"
     transform="scale(0.66773022,1.4976108)"><tspan
       id="tspan862-5"
       x="107.69492"
       y="77.427429"
       style="fill:#93a7ac;stroke-width:0.13537812px">FRONTEND</tspan></text>
  <path
     id="path976"
     d="m 253.39494,102.38354 c 0,0.0147 0.17256,0.39153 0.3881,0.85549 0.21048,0.45605 0.36597,0.84772 0.34258,0.86715 -0.0253,0.022 -0.6207,0.28301 -1.32451,0.57189 -0.70906,0.29474 -1.27938,0.54696 -1.26933,0.55869 0.0127,0.0147 0.81443,0.10852 1.78441,0.21116 1.16895,0.12831 1.7844,0.21923 1.82789,0.26982 0.0379,0.044 0.30402,0.54696 0.59857,1.10573 l 0.52715,1.02816 0.0935,-0.25809 c 0.0506,-0.13564 0.21048,-0.58582 0.35964,-0.98937 l 0.26105,-0.73906 1.40649,-0.17303 c 0.76929,-0.0968 1.45661,-0.17304 1.52854,-0.17304 0.067,-0.006 0.12199,-0.022 0.12199,-0.0587 0,-0.022 -0.5202,-0.27568 -1.16396,-0.55283 -0.63719,-0.27568 -1.16396,-0.51397 -1.16396,-0.51983 0,-0.006 0.13905,-0.3974 0.30465,-0.86715 0.16561,-0.46925 0.29265,-0.86715 0.28254,-0.88071 -0.0126,-0.022 -0.55369,0.17303 -1.19575,0.41718 l -1.17395,0.44432 -1.24594,-0.57263 c -1.22414,-0.55869 -1.29107,-0.58362 -1.29107,-0.54696 z m 7.73967,4.88857 c -1.49011,0.687 -2.71425,1.25897 -2.72594,1.2726 -0.0126,0.0147 1.09702,0.53377 2.46502,1.16395 l 2.48177,1.13674 0.2661,-0.12244 c 2.76443,-1.24731 5.27964,-2.40935 5.26794,-2.42291 -0.0379,-0.0513 -4.9301,-2.27356 -4.98528,-2.27356 -0.0379,0.006 -1.28437,0.56456 -2.76942,1.24731 z m -14.30367,-0.66721 c -1.42988,0.17304 -2.63063,0.65548 -3.14071,1.26674 -0.34953,0.41719 -0.40453,0.77213 -0.18899,1.20083 0.32109,0.64227 1.3747,1.18337 2.83131,1.45883 0.65388,0.12831 2.57544,0.10851 3.24101,-0.022 1.55698,-0.31454 2.56539,-0.89237 2.80286,-1.61985 0.0885,-0.26981 0.0885,-0.30867 0,-0.57262 -0.2326,-0.70607 -1.22413,-1.29196 -2.69244,-1.58685 -0.74255,-0.14738 -2.12724,-0.20603 -2.85304,-0.12245 z m 26.6239,1.9981 c -0.0721,0.10852 -0.33753,0.35267 -0.59226,0.55283 -0.75425,0.56456 -1.72922,1.0786 -7.77815,4.09907 -4.25448,2.12025 -5.33981,2.67894 -6.81317,3.50151 -1.63391,0.90593 -2.30953,1.15617 -3.13066,1.15617 -0.7375,0 -1.17401,-0.14737 -2.54864,-0.85549 -0.54864,-0.28301 -2.79288,-1.3754 -4.98535,-2.43457 -9.58929,-4.62674 -9.76652,-4.72374 -10.28166,-5.3658 l -0.21554,-0.27568 v 4.37643 l 0.24398,0.26982 c 0.2326,0.26394 1.02516,0.8167 1.30782,0.91172 0.0771,0.022 0.59857,0.27568 1.16396,0.55869 0.56507,0.28302 3.31794,1.61985 6.1208,2.97582 4.63745,2.24254 5.6944,2.75659 7.27313,3.55973 0.83617,0.43038 1.30106,0.53889 2.08875,0.5081 0.57708,-0.022 0.74755,-0.066 1.25258,-0.26395 0.32614,-0.12831 0.89141,-0.40546 1.25763,-0.61662 1.20239,-0.7002 2.65907,-1.44519 8.45877,-4.34344 5.45694,-2.73136 6.16599,-3.10969 6.75799,-3.58495 0.60869,-0.50077 0.58214,-0.37832 0.58214,-2.8148 0,-1.16394 -0.005,-2.11453 -0.019,-2.11453 -0.0126,0 -0.0721,0.0894 -0.14411,0.20016 z m -19.10167,2.85367 c -2.23261,0.39739 -4.08224,0.73905 -4.11568,0.75262 -0.0506,0.022 5.5623,2.75666 5.79977,2.82646 0.0569,0.022 2.56539,-4.17077 2.56539,-4.27943 0,-0.0587 0.005,-0.066 -4.24948,0.7002 z m 19.13346,4.33178 c -0.0506,0.0968 -0.28254,0.3336 -0.51008,0.51983 -0.72581,0.57776 -1.8162,1.15617 -8.44873,4.46566 -3.81632,1.90887 -5.01372,2.51992 -6.1493,3.16205 -1.83958,1.03395 -2.28273,1.20082 -3.26775,1.19496 -0.7643,-0.006 -1.23589,-0.14738 -2.24936,-0.68114 -0.97497,-0.51983 -2.067,-1.05331 -6.44859,-3.16204 -7.6226,-3.66832 -8.50397,-4.1262 -9.04078,-4.72947 l -0.26611,-0.28888 v 4.30465 l 0.29961,0.32774 c 0.48859,0.5279 0.43802,0.50077 8.61938,4.45401 3.00183,1.44527 5.83314,2.82646 6.28804,3.06504 1.20745,0.63055 1.55699,0.77792 2.03357,0.89237 1.11384,0.26395 1.93831,0.0513 3.74446,-0.96994 1.17395,-0.66134 2.60888,-1.40062 6.08237,-3.13492 6.60244,-3.30362 8.23129,-4.15134 8.71293,-4.5238 0.17255,-0.14151 0.40452,-0.3666 0.52019,-0.51397 l 0.20543,-0.26395 v -2.15332 c 0,-1.18337 -0.005,-2.15331 -0.019,-2.15331 -0.005,0 -0.0569,0.0836 -0.11061,0.18623 z m -0.0632,7.04767 c -0.43802,0.63642 -1.31281,1.12516 -8.12099,4.52388 -4.44341,2.22312 -5.79471,2.9176 -7.25632,3.72653 -1.53524,0.84779 -2.03862,1.02816 -2.92498,1.02816 -0.60363,0 -1.21914,-0.16717 -1.89982,-0.51397 -1.59035,-0.80893 -2.63726,-1.32305 -7.2797,-3.56559 -5.27964,-2.55093 -6.96872,-3.37929 -7.53399,-3.7071 -0.52651,-0.30868 -1.06365,-0.74493 -1.1857,-0.97002 l -0.11693,-0.20603 v 2.19211 c 0,2.51221 -0.0379,2.32598 0.54358,2.78188 0.64218,0.50077 1.59541,0.9893 7.93364,4.04078 4.43178,2.13388 6.02719,2.9118 6.81317,3.32305 1.60718,0.83613 2.03363,0.97001 2.92998,0.9118 0.81948,-0.044 1.358,-0.25002 2.77612,-1.03395 1.47836,-0.82257 2.57045,-1.38706 7.39518,-3.79838 6.70282,-3.34828 7.42863,-3.75176 7.93871,-4.43465 l 0.17698,-0.23096 v -2.14554 c 0,-1.1833 -0.005,-2.15325 -0.0126,-2.15325 -0.0127,0 -0.0885,0.10265 -0.17698,0.23096 z"
     style="fill:#93a7ac;stroke-width:1.80117214" />
  <path
     id="path992"
     d="m 245.40037,91.50842 c -2.66164,0 -4.81565,2.81722 -4.81565,6.29831 v 11.1615 9.54035 34.46779 c 0,3.48106 2.15401,6.27168 4.81565,6.27168 h 27.95936 v 3.95967 h -3.86067 c -0.93533,0 -1.6865,0.98242 -1.6865,2.20577 v 4.09251 c 0,1.22331 0.75117,2.20572 1.6865,2.20572 h 15.32074 c 0.93538,0 1.6865,-0.98241 1.6865,-2.20572 v -4.09251 c 0,-1.22335 -0.75112,-2.20577 -1.6865,-2.20577 h -3.86065 v -3.95967 h 27.95936 c 2.66162,0 4.81569,-2.79062 4.81569,-6.27168 v -44.00814 c 0,-3.48106 -2.1541,-6.25035 -4.81569,-6.2717 h -38.6473 v -4.8898 c 0,-3.48109 -2.13372,-6.29831 -4.79534,-6.29831 z m 38.85053,30.85356 c 0.8415,0 1.5434,0.17541 2.13352,0.53162 0.5952,0.35549 0.98866,0.81177 1.17852,1.35532 0.19513,0.53677 0.30473,1.44204 0.30473,2.73727 v 0.63769 h -3.00727 v -1.19585 c 0,-0.56377 -0.0443,-0.93525 -0.1219,-1.08959 -0.0771,-0.15429 -0.20643,-0.21277 -0.38633,-0.21277 -0.19512,0 -0.34454,0.11128 -0.44677,0.31884 -0.0973,0.20838 -0.14213,0.50718 -0.14213,0.9301 0,0.54383 0.0497,0.94733 0.16271,1.22246 0.1076,0.27512 0.4114,0.62095 0.91435,1.00987 1.44182,1.12069 2.3482,2.04571 2.72278,2.76375 0.37453,0.71808 0.56896,1.85763 0.56896,3.45479 0,1.16092 -0.11492,2.02745 -0.32536,2.57777 -0.20546,0.55024 -0.60367,1.00606 -1.19888,1.38187 -0.59522,0.36899 -1.28239,0.55798 -2.07253,0.55798 -0.86716,0 -1.59909,-0.20839 -2.21481,-0.6377 -0.61059,-0.42939 -1.00901,-0.98326 -1.19887,-1.64762 -0.18973,-0.66441 -0.30474,-1.59559 -0.30474,-2.81696 v -1.08957 h 3.02757 v 1.99311 c 0,0.6107 0.0392,0.99483 0.1219,1.16929 0.0876,0.17413 0.23151,0.26549 0.44727,0.26549 0.21529,0 0.3647,-0.0976 0.46743,-0.31883 0.1076,-0.22178 0.16271,-0.54705 0.16271,-0.98327 0,-0.95967 -0.0846,-1.59154 -0.28458,-1.88681 -0.20545,-0.29506 -0.71833,-0.79696 -1.5239,-1.48818 -0.80562,-0.69791 -1.34357,-1.19937 -1.60525,-1.51481 -0.26147,-0.31564 -0.47577,-0.74516 -0.65021,-1.30218 -0.16899,-0.55668 -0.24379,-1.28685 -0.24379,-2.15255 0,-1.24822 0.10429,-2.16006 0.34553,-2.73725 0.24624,-0.57726 0.65494,-1.0066 1.19884,-1.32873 0.54388,-0.32911 1.20133,-0.50525 1.97097,-0.50525 z m -18.06388,0.34521 h 2.70248 l 1.82873,7.33471 v -7.33471 h 2.70249 V 138.9977 H 270.576 l -1.6865,-7.41417 v 7.41443 h -2.70248 z m 8.53412,0 h 5.4862 v 3.26874 h -2.25546 v 3.08271 h 2.01164 v 3.10926 h -2.01164 v 6.8298 h -3.23074 z m -34.13642,41.98845 v 5.52762 h 25.74455 c -7.5e-4,-0.0386 0,-0.0688 0,-0.10612 v -4.62403 c 0,-0.2719 0.0246,-0.53932 0.0609,-0.79729 z m 47.34394,0 c 0.0344,0.25779 0.0609,0.52518 0.0609,0.79729 v 4.62403 c 0,0.0386 7.4e-4,0.0693 0,0.10612 h 25.74459 v -5.52762 z"
     style="fill:url(#a);stroke-width:0.74360251" />
  <path
     id="path1024"
     d="m 70.426551,80.43252 a 1.5854466,1.6519995 0 0 0 -1.078124,1.65211 v 23.12795 a 1.5854466,1.6519995 0 0 0 1.585439,1.65198 h 22.196251 a 1.5854466,1.6519995 0 0 0 1.58545,-1.65198 V 82.08463 a 1.5854466,1.6519995 0 0 0 -1.58545,-1.65211 H 70.933866 a 1.5854466,1.6519995 0 0 0 -0.28535,0 1.5854466,1.6519995 0 0 0 -0.190194,0 z m 3.67824,3.30408 c 0.88781,0 1.585438,0.72678 1.585438,1.65199 0,0.92532 -0.697616,1.65198 -1.585438,1.65198 -0.88781,0 -1.585451,-0.72678 -1.585451,-1.65198 0,-0.92533 0.697617,-1.65199 1.585451,-1.65199 z m 6.341779,0 h 9.512672 c 0.887815,0 1.585455,0.72678 1.585455,1.65199 0,0.92532 -0.69762,1.65198 -1.585455,1.65198 H 80.44657 c -0.887811,0 -1.585439,-0.72678 -1.585439,-1.65198 0,-0.92533 0.697616,-1.65199 1.585439,-1.65199 z m -7.92723,6.60792 h 19.025357 v 13.21609 H 72.51934 Z"
     style="fill:#93a7ac;stroke-width:3.23676157" />
  <path
     style="fill:#93a7ac;fill-opacity:1;stroke:#ffffff;stroke-width:0.41229004;stroke-linecap:round;stroke-linejoin:round;stroke-miterlimit:10"
     d="m 38.284983,109.52021 -8.871822,-1.25567 1.919963,-2.02417 0.360803,-0.37345 -11.687189,-7.56099 c -0.0065,0 -0.0065,0 -0.0065,0 l -0.122425,-0.0812 c -0.322124,0.0596 -0.650723,0.0866 -0.985711,0.0866 -2.58355,0 -4.683957,-1.74276 -4.716161,-3.90764 0.0322,-2.16495 2.132611,-3.91315 4.716161,-3.91315 0.334988,0 0.663587,0.0325 0.985711,0.092 l 0.122425,-0.0866 h 0.0065 l 11.687274,-7.55562 -0.360802,-0.37889 -1.919964,-2.02417 8.871822,-1.25023 -3.421106,6.9873 -1.791148,-1.88347 -0.251241,-0.26523 -10.630765,7.49601 c 0.5605,0.46548 0.97932,1.03918 1.211222,1.67242 h 0.03868 c 0.01934,0.065 0.03868,0.13533 0.05802,0.20024 l 12.576372,0.15151 0.01287,-2.82523 7.74426,3.58293 -7.74426,3.57749 -0.01287,-2.82524 -12.576372,0.15159 c -0.01934,0.0704 -0.03868,0.13533 -0.05802,0.20024 h -0.03868 c -0.231902,0.63324 -0.650722,1.21238 -1.211222,1.67242 l 10.63068,7.49608 0.251241,-0.26523 1.791148,-1.88354 z"
     id="path1053" />
  <path
     id="path1072"
     d="m 254.85225,43.213366 c -9.21137,0 -16.67217,4.1033 -16.67217,9.16944 v 22.92366 c 0,5.06615 7.48167,9.16953 16.67217,9.16953 9.19051,0 16.67211,-4.10338 16.67211,-9.16953 v -22.92366 c 0,-5.06614 -7.46072,-9.16944 -16.67211,-9.16944 m 12.50412,32.0931 c 0,1.14617 -4.43894,4.58476 -12.50412,4.58476 -8.06517,0 -12.50411,-3.43859 -12.50411,-4.58476 v -5.11197 c 3.35528,1.78809 7.75255,2.81963 12.50411,2.81963 4.75157,0 9.14884,-1.03154 12.50412,-2.81963 z m 0,-10.43023 c -2.70923,2.17771 -7.4608,3.55312 -12.50412,3.55312 -5.0433,0 -9.79487,-1.37541 -12.50411,-3.55312 v -6.44158 c 3.06353,1.90263 7.52327,3.1176 12.50411,3.1176 4.98078,0 9.4406,-1.21497 12.50412,-3.1176 z m -12.50412,-7.90867 c -8.06517,0 -12.50411,-3.43859 -12.50411,-4.58476 0,-1.14616 4.43894,-4.58477 12.50411,-4.58477 8.06518,0 12.50412,3.43861 12.50412,4.58477 0,1.14617 -4.43894,4.58476 -12.50412,4.58476 z"
     style="fill:#93a7ac;fill-opacity:1;stroke-width:2.18571234" />
  <path
     id="path1083"
     d="m 150.63661,91.27291 c -2.20915,-2.72274 -6.17815,-2.87834 -8.53709,-0.38896 -0.33698,0.35006 -0.86119,0.35006 -1.16075,0 -2.2466,-2.37268 -5.95349,-2.37268 -8.20009,0 -1.94705,1.98371 -2.2466,5.2121 -0.74887,7.58478 0.44932,0.73904 1.04842,1.32247 1.68496,1.75035 l 7.45123,6.26231 c 0.2621,0.23338 0.63654,0.23338 0.89864,0 l 7.41379,-6.26231 c 0.63654,-0.42788 1.19818,-0.97241 1.6475,-1.71145 1.34796,-2.2171 1.1982,-5.21212 -0.44932,-7.23472 z"
     style="fill:#93a7ac;stroke-width:0.38162953" />
  <text
     xml:space="preserve"
     style="font-style:normal;font-weight:normal;font-size:4.60243416px;line-height:125%;font-family:sans-serif;letter-spacing:0px;word-spacing:0px;fill:#93a7ac;fill-opacity:1;stroke:none;stroke-width:0.11506086px;stroke-linecap:butt;stroke-linejoin:miter;stroke-opacity:1"
     x="168.09479"
     y="91.752007"
     id="text864-3"
     transform="scale(0.8165887,1.2246067)"><tspan
       id="tspan862-56"
       x="168.09479"
       y="91.752007"
       style="fill:#93a7ac;stroke-width:0.11506086px">BEAT</tspan></text>
  <path
     d="m 144.84658,48.53409 -2.45432,2.38453 -2.51817,-2.32407 2.45432,-2.38453 z m -2.58202,-7.03268 2.66926,2.46352 3.0679,-2.98067 -5.81697,-5.3686 -5.66947,5.50827 3.14771,2.90509 z m -7.36295,7.1536 2.60158,-2.52761 -3.14771,-2.90509 -5.66947,5.50827 5.81696,5.36861 3.0679,-2.98067 z m 14.91745,-0.18138 -2.60157,2.5276 3.1477,2.90509 5.66948,-5.50827 -5.81697,-5.3686 -3.06789,2.98066 z m -7.36295,7.15359 -2.66926,-2.46352 -3.06789,2.98067 5.81696,5.3686 5.66947,-5.50826 -3.1477,-2.90509 z"
     id="path1191"
     style="fill:#93a7ac;fill-opacity:1;fill-rule:evenodd;stroke-width:1.20978582" />
  <path
     id="path1218"
     d="m 152.8763,139.12593 c 0.42314,0 0.81739,0.29859 0.87499,0.66364 0,0 0.0808,0.5131 0.0808,1.1233 0,0.61018 -0.0808,1.12328 -0.0808,1.12328 -0.0582,0.36522 -0.45185,0.66382 -0.87499,0.66382 h -2.18807 c -0.42372,0 -0.86352,0.23498 -0.9772,0.52208 -0.11368,0.28711 -0.27062,1.20824 0.0289,1.46868 l 1.54637,1.34579 c 0.29932,0.26062 0.32267,0.70544 0.0515,0.98872 l -1.81947,1.58375 c -0.32554,0.23614 -0.83653,0.21618 -1.13642,-0.0445 l -1.54637,-1.34578 c -0.29932,-0.26079 -0.79864,-0.3657 -1.10868,-0.23347 -0.31003,0.13218 -1.17948,0.68993 -1.17948,1.05849 v 1.904 c 0,0.36855 -0.34335,0.71129 -0.76266,0.76141 0,0 -0.58965,0.0706 -1.29087,0.0706 -0.70123,0 -1.29088,-0.0706 -1.29088,-0.0706 -0.41969,-0.0501 -0.76323,-0.39286 -0.76323,-0.76141 v -1.904 c 0,-0.36856 -0.26984,-0.75124 -0.59997,-0.85033 -0.33014,-0.099 -1.38849,-0.23548 -1.688,0.0252 l -1.54655,1.34578 c -0.29952,0.26063 -0.8107,0.28078 -1.13604,0.0448 l -1.81985,-1.58359 c -0.27138,-0.28326 -0.24842,-0.72792 0.0513,-0.98872 l 1.54636,-1.34577 c 0.29952,-0.26064 0.42047,-0.69479 0.26833,-0.96459 -0.15216,-0.26979 -0.7929,-1.02636 -1.21643,-1.02636 h -2.18769 c -0.42353,0 -0.81739,-0.29877 -0.87519,-0.66381 0,0 -0.0811,-0.51311 -0.0811,-1.12312 0,-0.61037 0.0811,-1.12312 0.0811,-1.12312 0.0576,-0.3654 0.45147,-0.66398 0.87519,-0.66398 h 2.18807 c 0.42353,0 0.86333,-0.23465 0.97701,-0.5221 0.11387,-0.28728 0.27061,-1.20804 -0.0291,-1.46851 l -1.54637,-1.34578 c -0.29951,-0.26063 -0.32267,-0.70545 -0.0513,-0.98888 l 1.81966,-1.58361 c 0.32554,-0.23598 0.83634,-0.21632 1.13605,0.0448 l 1.54656,1.34561 c 0.29951,0.26047 0.79844,0.36554 1.10867,0.23331 0.31023,-0.13218 1.17929,-0.68994 1.17929,-1.05833 v -1.90401 c 0,-0.36837 0.34334,-0.71109 0.76324,-0.76106 0,0 0.58945,-0.0706 1.29086,-0.0706 0.70142,0 1.29088,0.0706 1.29088,0.0706 0.4197,0.0501 0.76265,0.39269 0.76265,0.76106 v 1.90401 c 0,0.36855 0.27005,0.75142 0.60018,0.85034 0.33033,0.0991 1.38867,0.23531 1.68799,-0.0251 l 1.54636,-1.34577 c 0.29952,-0.26031 0.8107,-0.2808 1.13643,-0.0445 l 1.81947,1.58309 c 0.27119,0.28327 0.24861,0.72777 -0.0515,0.9889 l -1.54637,1.34561 c -0.29951,0.26046 -0.42046,0.69477 -0.26812,0.96474 0.15195,0.26978 0.79289,1.02637 1.21623,1.02637 z m -10.38267,-1.82457 c -2.29218,0 -4.15031,1.61655 -4.15031,3.61167 0,1.99443 1.85813,3.6115 4.15031,3.6115 2.29218,0 4.15051,-1.61689 4.15051,-3.6115 0,-1.9946 -1.85833,-3.61167 -4.15051,-3.61167 z"
     style="fill:#93a7ac;fill-opacity:1;stroke-width:0.17852737" />
  <text
     xml:space="preserve"
     style="font-style:normal;font-weight:normal;font-size:4.60243416px;line-height:125%;font-family:sans-serif;letter-spacing:0px;word-spacing:0px;fill:#93a7ac;fill-opacity:1;stroke:none;stroke-width:0.11506086px;stroke-linecap:butt;stroke-linejoin:miter;stroke-opacity:1"
     x="164.49451"
     y="128.19963"
     id="text864-2"
     transform="scale(0.8165887,1.2246067)"><tspan
       id="tspan862-9"
       x="164.49451"
       y="128.19963"
       style="fill:#93a7ac;stroke-width:0.11506086px">WORKER</tspan></text>
  <path
     id="path1247"
     d="m 201.22978,120.59295 c 0,0.45097 -0.2865,0.84257 -0.72259,1.04431 l -10.77054,5.26882 c -0.21796,0.14218 -0.49055,0.21349 -0.7771,0.21349 -0.2865,0 -0.55898,-0.0713 -0.77715,-0.21349 l -10.77054,-5.26882 c -0.43644,-0.20183 -0.72253,-0.59334 -0.72253,-1.04431 v -10.68003 c 0,-0.45093 0.2865,-0.84253 0.72253,-1.04426 l 10.77054,-5.26882 c 0.21797,-0.14262 0.49055,-0.21349 0.77715,-0.21349 0.2865,0 0.55893,0.0713 0.7771,0.21349 l 10.77054,5.26882 c 0.43645,0.20183 0.72259,0.59333 0.72259,1.04426 z m -12.27023,-14.65537 -2.57678,1.26973 8.0302,4.02282 2.67216,-1.31721 z m -8.12563,3.97534 8.12563,3.97537 2.67217,-1.30533 -8.01655,-4.03471 z m -1.41791,9.97993 8.18015,4.01093 v -7.96254 l -8.18015,-3.99911 z m 19.08703,0 v -7.95072 l -8.18015,3.99911 v 7.96254 z"
     style="fill:#93a7ac;fill-opacity:1;stroke-width:1.27195036" />
  <text
     xml:space="preserve"
     style="font-style:normal;font-weight:normal;font-size:4.60243416px;line-height:125%;font-family:sans-serif;letter-spacing:0px;word-spacing:0px;fill:#93a7ac;fill-opacity:1;stroke:none;stroke-width:0.11506086px;stroke-linecap:butt;stroke-linejoin:miter;stroke-opacity:1"
     x="226.0269"
     y="108.99368"
     id="text864-1"
     transform="scale(0.8165887,1.2246067)"><tspan
       id="tspan862-2"
       x="226.0269"
       y="108.99368"
       style="fill:#93a7ac;stroke-width:0.11506086px">PMS</tspan></text>
  <g
     id="g1369"
     transform="translate(1.3363476,-112.3906)">
    <path
       id="path1276"
       stroke-miterlimit="10"
       d="m 175.41493,168.75362 h 22.2784 v 23.43373 h -22.2784 z"
       style="fill:none;fill-opacity:1;stroke:#93a7ac;stroke-width:2.19862318;stroke-miterlimit:10;stroke-opacity:1" />
    <path
       style="fill:none;fill-opacity:1;stroke:#93a7ac;stroke-width:1.09931159;stroke-opacity:1"
       id="path1278"
       d="m 185.31644,171.42631 h 2.47538 v 1.95281 h -2.47538 z" />
    <path
       style="fill:none;fill-opacity:1;stroke:#93a7ac;stroke-width:1.09931159;stroke-opacity:1"
       id="path1280"
       d="m 185.31644,174.35553 h 2.47538 v 1.95281 h -2.47538 z" />
    <path
       style="fill:none;fill-opacity:1;stroke:#93a7ac;stroke-width:1.09931159;stroke-opacity:1"
       id="path1282"
       d="m 185.31644,177.28474 h 2.47538 v 1.95282 h -2.47538 z" />
    <g
       transform="matrix(1.2376886,0,0,0.97640544,166.75111,167.52069)"
       id="g1288"
       stroke-miterlimit="10"
       style="fill:none;fill-opacity:1;stroke:#93a7ac;stroke-width:2;stroke-miterlimit:10;stroke-opacity:1">
      <path
         style="fill:none;fill-opacity:1;stroke:#93a7ac;stroke-opacity:1"
         id="path1284"
         d="m 16,13 v 3" />
      <circle
         style="fill:none;fill-opacity:1;stroke:#93a7ac;stroke-opacity:1"
         id="circle1286"
         r="2"
         cy="18"
         cx="16" />
    </g>
  </g>
  <text
     xml:space="preserve"
     style="font-style:normal;font-weight:normal;font-size:4.60243416px;line-height:125%;font-family:sans-serif;letter-spacing:0px;word-spacing:0px;fill:#93a7ac;fill-opacity:1;stroke:none;stroke-width:0.11506086px;stroke-linecap:butt;stroke-linejoin:miter;stroke-opacity:1"
     x="222.75392"
     y="71.018318"
     id="text864-70"
     transform="scale(0.8165887,1.2246067)"><tspan
       id="tspan862-93"
       x="222.75392"
       y="71.018318"
       style="fill:#93a7ac;stroke-width:0.11506086px">PUBLIC</tspan></text>
  <text
     xml:space="preserve"
     style="font-style:normal;font-weight:normal;font-size:5.41512489px;line-height:125%;font-family:sans-serif;letter-spacing:0px;word-spacing:0px;fill:#93a7ac;fill-opacity:1;stroke:none;stroke-width:0.13537812px;stroke-linecap:butt;stroke-linejoin:miter;stroke-opacity:1"
     x="19.247017"
     y="77.94751"
     id="text864-7-6"
     transform="scale(0.66773023,1.4976108)"><tspan
       id="tspan862-5-0"
       x="19.247017"
       y="77.94751"
       style="fill:#93a7ac;stroke-width:0.13537812px">LOADBALANCER</tspan></text>
  <text
     xml:space="preserve"
     style="font-style:normal;font-weight:normal;font-size:5.41512489px;line-height:125%;font-family:sans-serif;letter-spacing:0px;word-spacing:0px;fill:#93a7ac;fill-opacity:1;stroke:none;stroke-width:0.13537812px;stroke-linecap:butt;stroke-linejoin:miter;stroke-opacity:1"
     x="368.79892"
     y="61.428383"
     id="text864-7-6-6"
     transform="scale(0.66773023,1.4976108)"><tspan
       id="tspan862-5-0-2"
       x="368.79892"
       y="61.428383"
       style="fill:#93a7ac;stroke-width:0.13537812px">DATABASE</tspan></text>
  <text
     xml:space="preserve"
     style="font-style:normal;font-weight:normal;font-size:5.41512489px;line-height:125%;font-family:sans-serif;letter-spacing:0px;word-spacing:0px;fill:#93a7ac;fill-opacity:1;stroke:none;stroke-width:0.13537812px;stroke-linecap:butt;stroke-linejoin:miter;stroke-opacity:1"
     x="366.82428"
     y="96.180748"
     id="text864-7-6-6-6"
     transform="scale(0.66773023,1.4976108)"><tspan
       id="tspan862-5-0-2-1"
       x="366.82428"
       y="96.180748"
       style="fill:#93a7ac;stroke-width:0.13537812px">DATASTORE</tspan></text>
</svg>
