<?xml version="1.0" encoding="UTF-8" standalone="no"?>
<!-- Generator: Adobe Illustrator 19.0.0, SVG Export Plug-In . SVG Version: 6.00 Build 0)  -->

<svg
   xmlns:dc="http://purl.org/dc/elements/1.1/"
   xmlns:cc="http://creativecommons.org/ns#"
   xmlns:rdf="http://www.w3.org/1999/02/22-rdf-syntax-ns#"
   xmlns:svg="http://www.w3.org/2000/svg"
   xmlns="http://www.w3.org/2000/svg"
   xmlns:sodipodi="http://sodipodi.sourceforge.net/DTD/sodipodi-0.dtd"
   xmlns:inkscape="http://www.inkscape.org/namespaces/inkscape"
   version="1.1"
   id="Layer_1"
   x="0px"
   y="0px"
   viewBox="0 0 530 530"
   xml:space="preserve"
   sodipodi:docname="gear-1.svg"
   width="530"
   height="530"
   inkscape:version="0.92.5 (2060ec1f9f, 2020-04-08)"><metadata
   id="metadata46"><rdf:RDF><cc:Work
       rdf:about=""><dc:format>image/svg+xml</dc:format><dc:type
         rdf:resource="http://purl.org/dc/dcmitype/StillImage" /><dc:title /></cc:Work></rdf:RDF></metadata><defs
   id="defs44" /><sodipodi:namedview
   pagecolor="#ffffff"
   bordercolor="#666666"
   borderopacity="1"
   objecttolerance="10"
   gridtolerance="10"
   guidetolerance="10"
   inkscape:pageopacity="0"
   inkscape:pageshadow="2"
   inkscape:window-width="738"
   inkscape:window-height="480"
   id="namedview42"
   showgrid="false"
   fit-margin-top="20"
   fit-margin-left="20"
   fit-margin-bottom="20"
   fit-margin-right="20"
   inkscape:zoom="0.48163265"
   inkscape:cx="192.3305"
   inkscape:cy="265"
   inkscape:window-x="54"
   inkscape:window-y="487"
   inkscape:window-maximized="0"
   inkscape:current-layer="Layer_1" />
<g
   id="XMLID_891_"
   transform="rotate(14.095617,174.11456,335.88544)">
	<g
   id="g8">
		<g
   id="g6">
			<path
   d="M 490,305 V 185 h -69.964 c -2.498,-7.291 -5.453,-14.42 -8.844,-21.34 L 460.667,114.185 375.814,29.332 326.34,78.807 C 319.421,75.417 312.289,72.462 305,69.964 V 0 H 185 v 69.964 c -7.29,2.498 -14.42,5.453 -21.34,8.843 L 114.185,29.332 29.332,114.185 78.807,163.66 c -3.391,6.92 -6.345,14.05 -8.843,21.34 H 0 v 120 h 69.964 c 2.498,7.291 5.453,14.42 8.843,21.34 l -49.475,49.475 84.853,84.853 49.475,-49.475 c 6.92,3.391 14.05,6.345 21.34,8.843 V 490 h 120 v -69.964 c 7.29,-2.498 14.42,-5.453 21.34,-8.843 l 49.475,49.475 84.853,-84.853 -49.475,-49.475 c 3.391,-6.919 6.346,-14.05 8.844,-21.34 z m -71.759,70.815 -42.427,42.426 -44.187,-44.186 -9.944,5.673 c -11.206,6.394 -23.199,11.364 -35.646,14.772 L 275,397.523 V 460 h -60 v -62.477 l -11.039,-3.022 c -12.445,-3.408 -24.438,-8.378 -35.646,-14.772 l -9.944,-5.673 -44.186,44.186 -42.426,-42.426 44.186,-44.186 -5.673,-9.944 C 103.878,310.48 98.908,298.487 95.5,286.04 L 92.478,275 H 30 V 215 H 92.478 L 95.5,203.961 c 3.408,-12.445 8.377,-24.438 14.771,-35.645 l 5.674,-9.944 -44.187,-44.187 42.426,-42.426 44.187,44.187 9.944,-5.674 c 11.207,-6.394 23.2,-11.364 35.645,-14.771 L 215,92.478 V 30 h 60 v 62.478 l 11.039,3.022 c 12.446,3.408 24.438,8.378 35.645,14.771 l 9.944,5.674 44.187,-44.187 42.427,42.426 -44.187,44.187 5.674,9.944 c 6.393,11.205 11.363,23.198 14.772,35.646 L 397.523,215 H 460 v 60 h -62.477 l -3.022,11.038 c -3.409,12.447 -8.38,24.44 -14.772,35.646 l -5.674,9.944 z"
   id="path2"
   inkscape:connector-curvature="0" />
			<path
   d="m 245,150 c -52.383,0 -95,42.617 -95,95 0,52.383 42.617,95 95,95 52.383,0 95,-42.617 95,-95 0,-52.383 -42.617,-95 -95,-95 z m 0,160 c -35.841,0 -65,-29.159 -65,-65 0,-35.841 29.159,-65 65,-65 35.841,0 65,29.159 65,65 0,35.841 -29.159,65 -65,65 z"
   id="path4"
   inkscape:connector-curvature="0" />
		</g>
	</g>
</g>
<g
   id="g11"
   transform="translate(20,20)">
</g>
<g
   id="g13"
   transform="translate(20,20)">
</g>
<g
   id="g15"
   transform="translate(20,20)">
</g>
<g
   id="g17"
   transform="translate(20,20)">
</g>
<g
   id="g19"
   transform="translate(20,20)">
</g>
<g
   id="g21"
   transform="translate(20,20)">
</g>
<g
   id="g23"
   transform="translate(20,20)">
</g>
<g
   id="g25"
   transform="translate(20,20)">
</g>
<g
   id="g27"
   transform="translate(20,20)">
</g>
<g
   id="g29"
   transform="translate(20,20)">
</g>
<g
   id="g31"
   transform="translate(20,20)">
</g>
<g
   id="g33"
   transform="translate(20,20)">
</g>
<g
   id="g35"
   transform="translate(20,20)">
</g>
<g
   id="g37"
   transform="translate(20,20)">
</g>
<g
   id="g39"
   transform="translate(20,20)">
</g>
</svg>