<?xml version="1.0" encoding="UTF-8" standalone="no"?>
<svg
   xmlns:dc="http://purl.org/dc/elements/1.1/"
   xmlns:cc="http://creativecommons.org/ns#"
   xmlns:rdf="http://www.w3.org/1999/02/22-rdf-syntax-ns#"
   xmlns:svg="http://www.w3.org/2000/svg"
   xmlns="http://www.w3.org/2000/svg"
   xmlns:sodipodi="http://sodipodi.sourceforge.net/DTD/sodipodi-0.dtd"
   xmlns:inkscape="http://www.inkscape.org/namespaces/inkscape"
   id="svg847"
   version="1.1"
   viewBox="0 0 75.359886 131.06743"
   height="131.06743mm"
   width="75.359886mm"
   sodipodi:docname="cuchi.svg"
   inkscape:version="0.92.5 (2060ec1f9f, 2020-04-08)">
  <sodipodi:namedview
     pagecolor="#ffffff"
     bordercolor="#666666"
     borderopacity="1"
     objecttolerance="10"
     gridtolerance="10"
     guidetolerance="10"
     inkscape:pageopacity="0"
     inkscape:pageshadow="2"
     inkscape:window-width="1920"
     inkscape:window-height="1009"
     id="namedview14"
     showgrid="false"
     inkscape:zoom="1"
     inkscape:cx="209.68154"
     inkscape:cy="284.28737"
     inkscape:window-x="0"
     inkscape:window-y="34"
     inkscape:window-maximized="1"
     inkscape:current-layer="svg847" />
  <defs
     id="defs841" />
  <metadata
     id="metadata844">
    <rdf:RDF>
      <cc:Work
         rdf:about="">
        <dc:format>image/svg+xml</dc:format>
        <dc:type
           rdf:resource="http://purl.org/dc/dcmitype/StillImage" />
        <dc:title />
      </cc:Work>
    </rdf:RDF>
  </metadata>
  <g
     id="g4553">
    <path
       inkscape:connector-curvature="0"
       d="m 35.786122,5.1304003 c -0.37238,0.028743 -1.52341,0.1291892 -2.53903,0.2153152 -2.43746,0.2153152 -6.33065,0.9761042 -8.90354,1.7656019 -2.53903,0.7607889 -6.94003,2.6842972 -9.072814,3.9618516 -5.687436,3.387668 -9.783744,8.397387 -11.137895,13.565012 -0.473954,1.894799 -0.406246,6.502596 0.135412,8.397396 1.69269,5.756153 6.398366,10.866369 13.135267,14.311455 4.50256,2.296713 6.87232,3.430724 9.95302,4.794395 5.3489,2.354147 6.22909,3.315906 6.22909,6.646149 0,2.067051 -0.64322,8.555293 -1.35414,14.010005 -0.77865,5.856643 -2.03124,16.579468 -2.36978,20.311642 -0.20311,2.210586 -0.50781,5.110207 -0.67706,6.459524 -0.71094,4.981023 -2.03124,16.206253 -2.40362,20.153733 -0.44009,4.44991 -0.30468,5.03844 1.3203,6.40212 1.8281,1.56464 3.82546,2.29672 7.38011,2.74172 2.53903,0.30144 5.58589,0.20095 7.82023,-0.28709 3.1484,-0.67467 5.95826,-2.28237 7.04159,-4.06234 0.57551,-0.91869 0.44009,-3.2154 -0.84635,-14.11048 -1.25259,-10.708474 -1.69268,-15.014821 -2.03122,-20.024548 -0.16927,-2.770423 -0.40626,-5.483429 -0.50781,-6.028894 -0.10154,-0.559828 -0.40625,-3.488149 -0.67708,-6.531305 -0.30468,-3.043156 -0.91405,-9.043342 -1.35416,-13.320989 -0.81247,-7.220322 -0.84633,-7.866276 -0.33852,-8.684482 0.67706,-1.148365 1.89581,-2.167533 3.6562,-3.086219 3.21611,-1.650776 6.94003,-3.473795 9.37751,-4.55038 7.65095,-3.430732 12.89828,-8.684491 14.92951,-15.000473 0.67708,-2.052697 0.57551,-7.406937 -0.13533,-9.545752 C 69.098332,14.087616 57.960452,6.9247109 43.978832,5.3887872 41.913742,5.1734634 37.004952,5.0012026 35.786202,5.1304003 Z"
       id="path10"
       style="fill:#ff6600;fill-opacity:1;stroke:#000000;stroke-width:4.36005068;stroke-miterlimit:4;stroke-dasharray:none;stroke-opacity:1" />
    <path
       inkscape:connector-curvature="0"
       d="m 32.394986,8.9393623 c -0.319914,0.021428 -1.309002,0.097357 -2.181648,0.1622781 -2.094543,0.1629408 -5.446886,0.7699627 -7.667089,1.4096266 -2.190704,0.615989 -5.997923,2.1868 -7.848687,3.235347 -4.9350354,2.780182 -8.5320054,6.920155 -9.7792593,11.20966 -0.4379551,1.572972 -0.4562001,5.40621 -0.022915,6.985911 1.3567108,4.79924 5.3088043,9.081147 11.0309483,11.991448 3.824451,1.94028 5.838549,2.899259 8.458713,4.054001 6.254358,0.955967 18.856042,2.121818 25.427177,-2.803788 -4.203409,2.945834 11.809872,-7.429398 13.65697,-12.669638 0.614809,-1.702952 0.616382,-6.157326 0.04206,-7.941138 C 60.823313,16.610857 51.387401,10.578864 39.4188,9.2085838 37.650849,9.0157984 33.442722,8.8399748 32.3951,8.9393623 Z"
       id="path10-3"
       style="fill:#feda00;fill-opacity:0.69750887;stroke:#000000;stroke-width:2.56796503;stroke-miterlimit:4;stroke-dasharray:none;stroke-opacity:1" />
    <path
       inkscape:connector-curvature="0"
       d="m 19.661872,33.030069 c 1.81543,-0.660326 -3.169362,1.105053 -2.37343,0.83269 1.28219,-0.438771 2.54904,-0.894117 3.82495,-1.339679 2.48462,-0.867672 -3.89644,1.451304 -1.54828,0.521412 1.57836,-0.636505 3.25514,-1.183398 4.89199,-1.756402 0.10477,-0.03657 0.42061,-0.145075 0.31604,-0.108174 -0.99699,0.351991 -1.99559,0.70227 -2.99339,1.05341 0.63285,0.169179 2.94636,-1.351615 4.47117,-1.423817 0.29546,-0.01394 0.42336,0.01325 0.71258,0.0469 0.11714,0.02504 0.24609,0.03511 0.35162,0.07521 0.73855,0.280254 1.4188,1.045552 1.87236,1.48928 0.85127,0.94527 1.6809,1.897588 2.55371,2.835595 0.32616,0.267414 0.75231,1.009038 1.26274,1.153098 0.19048,0.0537 0.2888,0.0026 0.45704,-0.0407 1.2112,-0.51544 -0.17016,0.079 -2.77412,0.938532 -0.11731,0.03872 0.21592,-0.09588 0.31677,-0.149172 0.41713,-0.220444 0.74639,-0.482076 1.08391,-0.746641 0.79333,-0.654543 1.59806,-1.305532 2.45894,-1.927338 0.76597,-0.529803 1.61483,-1.009925 2.51829,-1.44991 0.51631,-0.229308 1.04164,-0.441852 1.46682,-0.735135 1.13722,-0.722906 3.06404,-2.121233 4.64326,-1.516819 0.11312,0.0432 0.20589,0.103734 0.30885,0.1556 0.78636,0.637745 1.33398,1.37677 1.88796,2.097077 0.53745,0.686238 0.98473,1.396666 1.50339,2.087938 0.25491,0.400381 0.55987,0.788061 0.89691,1.164725 0,0 -3.33233,1.168295 -3.33233,1.168295 v 0 c -0.32199,-0.386758 -0.64048,-0.776279 -0.89605,-1.181505 -0.50615,-0.694508 -0.8796,-1.423068 -1.43477,-2.105218 -0.54631,-0.67703 -1.07071,-1.387028 -1.86962,-1.967613 -0.0795,-0.0278 -0.15078,-0.06756 -0.23853,-0.08339 -0.078,-0.01411 -0.31252,0.02323 -0.24407,-0.0034 1.00098,-0.394374 2.05395,-0.736968 3.07496,-1.11161 0.0864,-0.03176 -0.18754,0.0475 -0.27038,0.08253 -0.17456,0.07384 -0.34691,0.203345 -0.48594,0.298378 -0.14016,0.09856 -0.25229,0.211649 -0.39748,0.307474 -0.29653,0.195703 -0.7293,0.303644 -1.05604,0.476258 -0.94689,0.412524 -1.80425,0.899289 -2.59825,1.417922 -0.88518,0.599896 -1.65377,1.263363 -2.45231,1.906779 -1.27235,1.079648 -2.8956,2.014539 -5.21029,2.282478 -0.10508,-0.0091 -0.2148,-0.0069 -0.31537,-0.02737 -0.77326,-0.160273 -1.13661,-0.968135 -1.54895,-1.346236 -0.85541,-0.939083 -1.6879,-1.885678 -2.56914,-2.815879 -0.3992,-0.377705 -1.08455,-1.139621 -1.78347,-1.324404 -0.0992,-0.02625 -0.21085,-0.02883 -0.31627,-0.04311 -0.43911,-0.01 -0.812,0.03279 -1.21106,0.149619 -0.0888,0.0259 -0.34546,0.115738 -0.26043,0.08537 1.00115,-0.357809 2.00595,-0.71178 3.0089,-1.067669 -1.19383,0.423831 -2.3861,0.849324 -3.58152,1.271469 -0.10311,0.0364 -0.41663,0.140988 -0.31395,0.104147 0.97621,-0.350133 1.95589,-0.696616 2.93461,-1.044107 0.12929,-0.04587 -0.25698,0.09348 -0.38629,0.139327 -0.68926,0.244454 -0.19895,0.05921 -0.92449,0.344074 -1.73046,0.714309 -0.504,0.218422 -4.34445,1.580235 -0.19189,0.06799 -0.77271,0.266613 -0.58168,0.197656 0.88624,-0.319935 3.55994,-1.264069 2.66751,-0.950631 -5.077673,1.783355 -2.35747,0.858653 -4.18381,1.478007 0,0 3.01088,-1.475211 3.01088,-1.475211 z"
       id="path1614"
       style="opacity:1;fill:#000000;fill-opacity:1;stroke:none;stroke-width:0.23118348;stroke-miterlimit:4;stroke-dasharray:none;stroke-opacity:1" />
    <ellipse
       ry="8.0509596"
       rx="12.270955"
       cy="9.8300467"
       cx="14.077775"
       id="path1644-6"
       style="opacity:1;fill:#ffffff;fill-opacity:0.98576511;stroke:#000000;stroke-width:3.35226703;stroke-miterlimit:4;stroke-dasharray:none;stroke-opacity:1" />
    <ellipse
       ry="10.046168"
       rx="10.55742"
       cy="11.657252"
       cx="31.66452"
       id="path1644"
       style="opacity:1;fill:#ffffff;fill-opacity:0.98576511;stroke:#000000;stroke-width:3.47339916;stroke-miterlimit:4;stroke-dasharray:none;stroke-opacity:1" />
    <ellipse
       ry="1.4329249"
       rx="0.42203552"
       cy="6.5944982"
       cx="7.3776722"
       id="path1582-7"
       style="opacity:1;fill:#ffffff;fill-opacity:1;stroke:#000000;stroke-width:3.4816401;stroke-miterlimit:4;stroke-dasharray:none;stroke-opacity:1" />
    <ellipse
       ry="1.4329249"
       rx="0.42203552"
       cy="13.727256"
       cx="32.479332"
       id="path1582"
       style="opacity:1;fill:#ffffff;fill-opacity:1;stroke:#000000;stroke-width:3.4816401;stroke-miterlimit:4;stroke-dasharray:none;stroke-opacity:1" />
  </g>
</svg>
