<?xml version="1.0" encoding="UTF-8" standalone="no"?>
<svg
   xmlns:dc="http://purl.org/dc/elements/1.1/"
   xmlns:cc="http://creativecommons.org/ns#"
   xmlns:rdf="http://www.w3.org/1999/02/22-rdf-syntax-ns#"
   xmlns:svg="http://www.w3.org/2000/svg"
   xmlns="http://www.w3.org/2000/svg"
   xmlns:sodipodi="http://sodipodi.sourceforge.net/DTD/sodipodi-0.dtd"
   xmlns:inkscape="http://www.inkscape.org/namespaces/inkscape"
   id="svg847"
   version="1.1"
   viewBox="0 0 75.359886 131.06743"
   height="131.06743mm"
   width="75.359886mm"
   sodipodi:docname="cuchi-disconnect.svg"
   inkscape:version="0.92.5 (2060ec1f9f, 2020-04-08)">
  <sodipodi:namedview
     pagecolor="#ffffff"
     bordercolor="#666666"
     borderopacity="1"
     objecttolerance="10"
     gridtolerance="10"
     guidetolerance="10"
     inkscape:pageopacity="0"
     inkscape:pageshadow="2"
     inkscape:window-width="1920"
     inkscape:window-height="1009"
     id="namedview14"
     showgrid="false"
     inkscape:zoom="1"
     inkscape:cx="193.68154"
     inkscape:cy="320.78737"
     inkscape:window-x="0"
     inkscape:window-y="34"
     inkscape:window-maximized="1"
     inkscape:current-layer="svg847"
     showguides="false" />
  <defs
     id="defs841" />
  <metadata
     id="metadata844">
    <rdf:RDF>
      <cc:Work
         rdf:about="">
        <dc:format>image/svg+xml</dc:format>
        <dc:type
           rdf:resource="http://purl.org/dc/dcmitype/StillImage" />
        <dc:title></dc:title>
      </cc:Work>
    </rdf:RDF>
  </metadata>
  <path
     style="fill:#ff6600;fill-opacity:1;stroke:#000000;stroke-width:4.36005068;stroke-miterlimit:4;stroke-dasharray:none;stroke-opacity:1"
     id="path10"
     d="m 35.786122,5.1304003 c -0.37238,0.028743 -1.52341,0.1291892 -2.53903,0.2153152 -2.43746,0.2153152 -6.33065,0.9761042 -8.90354,1.7656019 -2.53903,0.7607889 -6.94003,2.6842972 -9.072814,3.9618516 -5.687436,3.387668 -9.783744,8.397387 -11.137895,13.565012 -0.473954,1.894799 -0.406246,6.502596 0.135412,8.397396 1.69269,5.756153 6.398366,10.866369 13.135267,14.311455 4.50256,2.296713 6.87232,3.430724 9.95302,4.794395 5.3489,2.354147 6.22909,3.315906 6.22909,6.646149 0,2.067051 -0.64322,8.555293 -1.35414,14.010005 -0.77865,5.856643 -2.03124,16.579468 -2.36978,20.311642 -0.20311,2.210586 -0.50781,5.110207 -0.67706,6.459524 -0.71094,4.981023 -2.03124,16.206253 -2.40362,20.153733 -0.44009,4.44991 -0.30468,5.03844 1.3203,6.40212 1.8281,1.56464 3.82546,2.29672 7.38011,2.74172 2.53903,0.30144 5.58589,0.20095 7.82023,-0.28709 3.1484,-0.67467 5.95826,-2.28237 7.04159,-4.06234 0.57551,-0.91869 0.44009,-3.2154 -0.84635,-14.11048 -1.25259,-10.708474 -1.69268,-15.014821 -2.03122,-20.024548 -0.16927,-2.770423 -0.40626,-5.483429 -0.50781,-6.028894 -0.10154,-0.559828 -0.40625,-3.488149 -0.67708,-6.531305 -0.30468,-3.043156 -0.91405,-9.043342 -1.35416,-13.320989 -0.81247,-7.220322 -0.84633,-7.866276 -0.33852,-8.684482 0.67706,-1.148365 1.89581,-2.167533 3.6562,-3.086219 3.21611,-1.650776 6.94003,-3.473795 9.37751,-4.55038 7.65095,-3.430732 12.89828,-8.684491 14.92951,-15.000473 0.67708,-2.052697 0.57551,-7.406937 -0.13533,-9.545752 C 69.098332,14.087616 57.960452,6.9247109 43.978832,5.3887872 41.913742,5.1734634 37.004952,5.0012026 35.786202,5.1304003 Z"
     inkscape:connector-curvature="0" />
  <path
     style="fill:#feda00;fill-opacity:0.69750887;stroke:#000000;stroke-width:2.56796503;stroke-miterlimit:4;stroke-dasharray:none;stroke-opacity:1"
     id="path10-3"
     d="m 32.394986,8.9393623 c -0.319914,0.021428 -1.309002,0.097357 -2.181648,0.1622781 -2.094543,0.1629408 -5.446886,0.7699627 -7.667089,1.4096266 -2.190704,0.615989 -5.997923,2.1868 -7.848687,3.235347 -4.9350354,2.780182 -8.5320054,6.920155 -9.7792593,11.20966 -0.4379551,1.572972 -0.4562001,5.40621 -0.022915,6.985911 1.3567108,4.79924 5.3088043,9.081147 11.0309483,11.991448 3.824451,1.94028 5.838549,2.899259 8.458713,4.054001 6.254358,0.955967 18.856042,2.121818 25.427177,-2.803788 -4.203409,2.945834 11.809872,-7.429398 13.65697,-12.669638 0.614809,-1.702952 0.616382,-6.157326 0.04206,-7.941138 C 60.823313,16.610857 51.387401,10.578864 39.4188,9.2085838 37.650849,9.0157984 33.442722,8.8399748 32.3951,8.9393623 Z"
     inkscape:connector-curvature="0" />
  <ellipse
     style="opacity:1;fill:#ffffff;fill-opacity:0.98576511;stroke:#000000;stroke-width:2.98924518;stroke-miterlimit:4;stroke-dasharray:none;stroke-opacity:1"
     id="path1644-6"
     cx="28.365274"
     cy="15.386297"
     rx="9.5420494"
     ry="8.2324705" />
  <ellipse
     style="opacity:1;fill:#ffffff;fill-opacity:0.98576511;stroke:#000000;stroke-width:3.47339916;stroke-miterlimit:4;stroke-dasharray:none;stroke-opacity:1"
     id="path1644"
     cx="49.391605"
     cy="17.742668"
     rx="10.55742"
     ry="10.046168" />
  <ellipse
     style="opacity:1;fill:#ffffff;fill-opacity:1;stroke:#000000;stroke-width:3.4816401;stroke-miterlimit:4;stroke-dasharray:none;stroke-opacity:1"
     id="path1582-7"
     cx="30.13184"
     cy="19.029913"
     rx="0.42203552"
     ry="1.4329249" />
  <ellipse
     style="opacity:1;fill:#ffffff;fill-opacity:1;stroke:#000000;stroke-width:3.4816401;stroke-miterlimit:4;stroke-dasharray:none;stroke-opacity:1"
     id="path1582"
     cx="45.443916"
     cy="19.81267"
     rx="0.42203552"
     ry="1.4329249" />
  <path
     style="opacity:1;fill:#000200;fill-opacity:0.98576511;stroke:#000000;stroke-width:3.47783256;stroke-miterlimit:4;stroke-dasharray:none;stroke-opacity:1"
     id="path80"
     d="m 56.006132,11.230596 c -0.917371,0.627113 -1.938012,1.23864 -2.951251,1.84567 -0.978535,0.587344 -1.913629,1.184115 -2.901129,1.769098 -0.696462,0.451778 -1.592499,0.769108 -2.442983,1.12778 -0.955855,0.440497 -1.931295,0.866859 -2.891065,1.304956 -0.988843,0.459733 -2.030436,0.869253 -3.09094,1.253171 -0.591483,0.198152 -1.171192,0.408725 -1.748138,0.631408 -0.146874,-0.0234 0.06787,-0.169151 0.21475,-0.145744 v 0 c 0.577241,-0.222212 1.157819,-0.431743 1.748695,-0.630875 1.059059,-0.38401 2.098648,-0.794028 3.08608,-1.253378 0.960621,-0.437862 1.934858,-0.865644 2.892895,-1.304939 0.851309,-0.357565 1.741283,-0.677701 2.436549,-1.12882 0.833564,-0.491736 1.594395,-1.002009 2.434387,-1.49236 1.013352,-0.606136 2.032925,-1.217446 2.950397,-1.843671 -0.102441,-0.04949 0.159305,-0.181775 0.261753,-0.132296 z"
     inkscape:connector-curvature="0"
     inkscape:transform-center-x="-0.72460907"
     inkscape:transform-center-y="1.8326669" />
  <path
     style="opacity:1;fill:#000200;fill-opacity:0.98576511;stroke:#000000;stroke-width:3.0443151;stroke-miterlimit:4;stroke-dasharray:none;stroke-opacity:1"
     id="path84"
     d="m 20.395625,12.913776 c 1.468126,0.531298 2.991749,1.034101 4.429531,1.57559 1.052455,0.392362 2.107763,0.784016 3.171849,1.17285 0.944335,0.318725 1.776725,0.66651 2.586982,1.01662 0.749405,0.307155 1.511687,0.61226 2.27617,0.91686 0.864216,0.310056 1.667321,0.621986 2.449543,0.951107 0.07078,0.07588 -0.238147,0.03133 -0.308921,-0.04455 v 0 C 34.21963,18.173399 33.413332,17.862327 32.552748,17.551895 31.788059,17.246953 31.022745,16.941926 30.275114,16.634038 29.466028,16.28439 28.632718,15.937854 27.690529,15.619413 26.627323,15.230469 25.571767,14.839059 24.520483,14.44652 c -1.43855,-0.541607 -2.963653,-1.044559 -4.432585,-1.575954 -0.07353,-0.07629 0.234192,-0.03309 0.307727,0.04321 z"
     inkscape:connector-curvature="0" />
  <path
     style="opacity:1;fill:#000200;fill-opacity:0.98576511;stroke:#000000;stroke-width:4.69999981;stroke-miterlimit:4;stroke-dasharray:none;stroke-opacity:1"
     id="path88"
     d="m 38.221791,35.701303 c 0.940125,0.366458 1.919008,0.637998 2.793515,1.149524 0.567933,0.412578 1.229626,0.652188 1.883356,0.889881 0.05017,0.17809 -0.201695,0.249034 -0.25186,0.07094 v 0 c -0.654278,-0.238884 -1.314613,-0.482035 -1.883477,-0.894665 -0.875586,-0.507653 -1.853469,-0.780364 -2.793413,-1.144865 -0.05007,-0.178105 0.201803,-0.248924 0.251879,-0.07082 z"
     inkscape:connector-curvature="0" />
</svg>
