<?xml version="1.0" encoding="UTF-8" standalone="no"?>
<svg
   xmlns:dc="http://purl.org/dc/elements/1.1/"
   xmlns:cc="http://creativecommons.org/ns#"
   xmlns:rdf="http://www.w3.org/1999/02/22-rdf-syntax-ns#"
   xmlns:svg="http://www.w3.org/2000/svg"
   xmlns="http://www.w3.org/2000/svg"
   id="svg847"
   version="1.1"
   viewBox="0 0 77.65049 135.34935"
   height="135.34935mm"
   width="77.65049mm">
  <defs
     id="defs841" />
  <metadata
     id="metadata844">
    <rdf:RDF>
      <cc:Work
         rdf:about="">
        <dc:format>image/svg+xml</dc:format>
        <dc:type
           rdf:resource="http://purl.org/dc/dcmitype/StillImage" />
        <dc:title></dc:title>
      </cc:Work>
    </rdf:RDF>
  </metadata>
  <path
     style="fill:#ff6600;fill-opacity:1;stroke:#000000;stroke-width:4.36005068;stroke-miterlimit:4;stroke-dasharray:none;stroke-opacity:1"
     id="path10"
     d="m 36.246201,7.2560166 c -0.37238,0.028743 -1.52341,0.1291892 -2.53903,0.2153152 -2.43746,0.2153152 -6.33065,0.9761042 -8.90354,1.7656019 -2.53903,0.7607889 -6.94003,2.6842953 -9.072814,3.9618503 -5.687436,3.387668 -9.7837448,8.397387 -11.1378958,13.565012 -0.473954,1.894799 -0.406246,6.502596 0.135412,8.397396 1.69269,5.756153 6.3983668,10.866369 13.1352678,14.311455 4.50256,2.296713 6.87232,3.430724 9.95302,4.794395 5.3489,2.354147 6.22909,3.315906 6.22909,6.646149 0,2.067051 -0.64322,8.555293 -1.35414,14.010005 -0.77865,5.856643 -2.03124,16.579468 -2.36978,20.311642 -0.20311,2.210586 -0.50781,5.110212 -0.67706,6.459522 -0.71094,4.98103 -2.03124,16.20626 -2.40362,20.15374 -0.44009,4.44991 -0.30468,5.03844 1.3203,6.40212 1.8281,1.56464 3.82546,2.29672 7.38011,2.74172 2.53903,0.30144 5.58589,0.20095 7.82023,-0.28709 3.1484,-0.67467 5.95826,-2.28237 7.04159,-4.06234 0.57551,-0.91869 0.44009,-3.2154 -0.84635,-14.11048 -1.25259,-10.70848 -1.69268,-15.014826 -2.03122,-20.024553 -0.16927,-2.770423 -0.40626,-5.483429 -0.50781,-6.028894 -0.10154,-0.559828 -0.40625,-3.488149 -0.67708,-6.531305 -0.30468,-3.043156 -0.91405,-9.043342 -1.35416,-13.320989 -0.81247,-7.220322 -0.84633,-7.866276 -0.33852,-8.684482 0.67706,-1.148365 1.89581,-2.167533 3.6562,-3.086219 3.21611,-1.650776 6.94003,-3.473795 9.37751,-4.55038 7.65095,-3.430732 12.89828,-8.684491 14.92951,-15.000473 0.67708,-2.052697 0.57551,-7.406937 -0.13533,-9.545752 C 69.558411,16.213231 58.420531,9.0503272 44.438911,7.5144035 42.373821,7.2990797 37.465031,7.1268189 36.246281,7.2560166 Z" />
  <path
     style="fill:#feda00;fill-opacity:0.69750887;stroke:#000000;stroke-width:2.56796503;stroke-miterlimit:4;stroke-dasharray:none;stroke-opacity:1"
     id="path10-3"
     d="m 32.855065,11.064978 c -0.319914,0.02143 -1.309002,0.09736 -2.181648,0.162278 -2.094543,0.162941 -5.446886,0.769963 -7.667089,1.409627 -2.190704,0.615989 -5.997923,2.1868 -7.848687,3.235347 -4.935036,2.780182 -8.5320063,6.920155 -9.7792602,11.20966 -0.4379551,1.572972 -0.4562001,5.40621 -0.022915,6.985911 1.3567108,4.79924 5.3088052,9.081147 11.0309492,11.991448 3.824451,1.94028 5.838549,2.899259 8.458713,4.054001 6.254358,0.955967 18.856042,2.121818 25.427177,-2.803788 -4.203409,2.945834 11.809872,-7.429398 13.65697,-12.669638 0.614809,-1.702952 0.616382,-6.157326 0.04206,-7.941138 C 61.283392,18.736473 51.84748,12.70448 39.878879,11.334199 38.110928,11.141414 33.902801,10.96559 32.855179,11.064978 Z" />
  <ellipse
     style="opacity:1;fill:#ffffff;fill-opacity:0.98576511;stroke:#000000;stroke-width:4.20432234;stroke-miterlimit:4;stroke-dasharray:none;stroke-opacity:1"
     id="path1644-7"
     cx="28.793041"
     cy="15.919063"
     rx="12.562456"
     ry="12.369903" />
  <ellipse
     style="opacity:1;fill:#ffffff;fill-opacity:0.98576511;stroke:#000000;stroke-width:4.20432234;stroke-miterlimit:4;stroke-dasharray:none;stroke-opacity:1"
     id="path1644"
     cx="45.711521"
     cy="16.144321"
     rx="12.562456"
     ry="12.369903" />
  <ellipse
     style="opacity:1;fill:#ffffff;fill-opacity:1;stroke:#000000;stroke-width:3.74340916;stroke-miterlimit:4;stroke-dasharray:none;stroke-opacity:1"
     id="path1582"
     cx="41.130295"
     cy="15.647464"
     rx="0.5923183"
     ry="1.1802773" />
  <ellipse
     style="opacity:1;fill:#ffffff;fill-opacity:1;stroke:#000000;stroke-width:3.74340916;stroke-miterlimit:4;stroke-dasharray:none;stroke-opacity:1"
     id="path1582-3"
     cx="25.5389"
     cy="15.617454"
     rx="0.5923183"
     ry="1.1802773" />
  <path
     id="path857"
     d="m 26.094896,34.697607 c 0.493521,0.4246 1.187024,0.504593 1.720542,0.860271 1.090359,0.726906 -1.419506,-0.209713 1.433786,0.860272 0.369016,0.138381 0.773142,0.162128 1.147028,0.286757 0.48833,0.162776 0.945456,0.410738 1.433785,0.573514 0.999098,0.333033 1.808679,0.361736 2.867571,0.573514 0.386457,0.07729 0.75688,0.231022 1.147028,0.286757 0.283875,0.04055 0.573514,0 0.860272,0 0.382342,0 0.764685,0 1.147028,0 0.157587,0 2.008028,0.05721 2.294057,0 2.414402,-0.48288 0.0089,-0.0044 1.147028,-0.573514 0.270357,-0.135179 0.589914,-0.151579 0.860271,-0.286757 0.308255,-0.154127 0.564746,-0.396199 0.860272,-0.573514 0.183277,-0.109967 0.402525,-0.158516 0.573514,-0.286757 0.216286,-0.162215 0.341685,-0.434417 0.573514,-0.573515 0.259193,-0.155515 0.589914,-0.151578 0.860271,-0.286757 0.120908,-0.06045 0.191172,-0.191171 0.286757,-0.286757 0.191172,-0.191171 0.348564,-0.423547 0.573515,-0.573514 0.07953,-0.05302 0.191171,0 0.286757,0 0.09558,-0.09559 0.191171,-0.191172 0.286757,-0.286757"
     style="fill:none;fill-rule:evenodd;stroke:#000000;stroke-width:3.51895833;stroke-linecap:round;stroke-linejoin:round;stroke-miterlimit:4;stroke-dasharray:none;stroke-opacity:1" />
</svg>
