<?xml version="1.0" encoding="UTF-8" standalone="no"?>
<svg
   xmlns:dc="http://purl.org/dc/elements/1.1/"
   xmlns:cc="http://creativecommons.org/ns#"
   xmlns:rdf="http://www.w3.org/1999/02/22-rdf-syntax-ns#"
   xmlns:svg="http://www.w3.org/2000/svg"
   xmlns="http://www.w3.org/2000/svg"
   id="svg847"
   version="1.1"
   viewBox="0 0 75.359886 131.06743"
   height="131.06743mm"
   width="75.359886mm">
  <defs
     id="defs841" />
  <metadata
     id="metadata844">
    <rdf:RDF>
      <cc:Work
         rdf:about="">
        <dc:format>image/svg+xml</dc:format>
        <dc:type
           rdf:resource="http://purl.org/dc/dcmitype/StillImage" />
        <dc:title></dc:title>
      </cc:Work>
    </rdf:RDF>
  </metadata>
  <path
     style="fill:#ff6600;fill-opacity:1;stroke:#000000;stroke-width:4.36005068;stroke-miterlimit:4;stroke-dasharray:none;stroke-opacity:1"
     id="path10"
     d="m 35.786122,5.1304003 c -0.37238,0.028743 -1.52341,0.1291892 -2.53903,0.2153152 -2.43746,0.2153152 -6.33065,0.9761042 -8.90354,1.7656019 -2.53903,0.7607889 -6.94003,2.6842972 -9.072814,3.9618516 -5.687436,3.387668 -9.783744,8.397387 -11.137895,13.565012 -0.473954,1.894799 -0.406246,6.502596 0.135412,8.397396 1.69269,5.756153 6.398366,10.866369 13.135267,14.311455 4.50256,2.296713 6.87232,3.430724 9.95302,4.794395 5.3489,2.354147 6.22909,3.315906 6.22909,6.646149 0,2.067051 -0.64322,8.555293 -1.35414,14.010005 -0.77865,5.856643 -2.03124,16.579468 -2.36978,20.311642 -0.20311,2.210586 -0.50781,5.110207 -0.67706,6.459524 -0.71094,4.981023 -2.03124,16.206253 -2.40362,20.153733 -0.44009,4.44991 -0.30468,5.03844 1.3203,6.40212 1.8281,1.56464 3.82546,2.29672 7.38011,2.74172 2.53903,0.30144 5.58589,0.20095 7.82023,-0.28709 3.1484,-0.67467 5.95826,-2.28237 7.04159,-4.06234 0.57551,-0.91869 0.44009,-3.2154 -0.84635,-14.11048 -1.25259,-10.708474 -1.69268,-15.014821 -2.03122,-20.024548 -0.16927,-2.770423 -0.40626,-5.483429 -0.50781,-6.028894 -0.10154,-0.559828 -0.40625,-3.488149 -0.67708,-6.531305 -0.30468,-3.043156 -0.91405,-9.043342 -1.35416,-13.320989 -0.81247,-7.220322 -0.84633,-7.866276 -0.33852,-8.684482 0.67706,-1.148365 1.89581,-2.167533 3.6562,-3.086219 3.21611,-1.650776 6.94003,-3.473795 9.37751,-4.55038 7.65095,-3.430732 12.89828,-8.684491 14.92951,-15.000473 0.67708,-2.052697 0.57551,-7.406937 -0.13533,-9.545752 C 69.098332,14.087616 57.960452,6.9247109 43.978832,5.3887872 41.913742,5.1734634 37.004952,5.0012026 35.786202,5.1304003 Z" />
  <path
     style="fill:#feda00;fill-opacity:0.69750887;stroke:#000000;stroke-width:2.56796503;stroke-miterlimit:4;stroke-dasharray:none;stroke-opacity:1"
     id="path10-3"
     d="m 32.394986,8.9393623 c -0.319914,0.021428 -1.309002,0.097357 -2.181648,0.1622781 -2.094543,0.1629408 -5.446886,0.7699627 -7.667089,1.4096266 -2.190704,0.615989 -5.997923,2.1868 -7.848687,3.235347 -4.9350354,2.780182 -8.5320054,6.920155 -9.7792593,11.20966 -0.4379551,1.572972 -0.4562001,5.40621 -0.022915,6.985911 1.3567108,4.79924 5.3088043,9.081147 11.0309483,11.991448 3.824451,1.94028 5.838549,2.899259 8.458713,4.054001 6.254358,0.955967 18.856042,2.121818 25.427177,-2.803788 -4.203409,2.945834 11.809872,-7.429398 13.65697,-12.669638 0.614809,-1.702952 0.616382,-6.157326 0.04206,-7.941138 C 60.823313,16.610857 51.387401,10.578864 39.4188,9.2085838 37.650849,9.0157984 33.442722,8.8399748 32.3951,8.9393623 Z" />
  <path
     id="path826"
     d="m 17.817419,19.513537 15.64846,-0.101664 -3.672595,4.981617 -8.941978,0.20333 z"
     style="fill:#ffffff;fill-opacity:0.98576511;fill-rule:evenodd;stroke:#000000;stroke-width:0.48560092px;stroke-linecap:butt;stroke-linejoin:miter;stroke-opacity:1" />
  <ellipse
     style="opacity:1;fill:#fffefc;fill-opacity:1;stroke:#000000;stroke-width:2.98924518;stroke-miterlimit:4;stroke-dasharray:none;stroke-opacity:1"
     id="path1644-6"
     cx="25.345453"
     cy="17.522173"
     rx="9.5420494"
     ry="8.2324705" />
  <ellipse
     style="opacity:1;fill:#fffefc;fill-opacity:1;stroke:#000000;stroke-width:3.5256846;stroke-miterlimit:4;stroke-dasharray:none;stroke-opacity:1"
     id="path1644"
     cx="42.41069"
     cy="16.800869"
     rx="10.909184"
     ry="10.017136" />
  <ellipse
     style="opacity:1;fill:#ffffff;fill-opacity:1;stroke:#000000;stroke-width:3.4816401;stroke-miterlimit:4;stroke-dasharray:none;stroke-opacity:1"
     id="path1582-7"
     cx="29.091034"
     cy="21.50218"
     rx="0.42203552"
     ry="1.4329249" />
  <ellipse
     style="opacity:1;fill:#ffffff;fill-opacity:1;stroke:#000000;stroke-width:3.4816401;stroke-miterlimit:4;stroke-dasharray:none;stroke-opacity:1"
     id="path1582"
     cx="48.502201"
     cy="21.538313"
     rx="0.42203552"
     ry="1.4329249" />
  <path
     d="m 30.555419,43.973086 c 0.306917,-0.02537 0.613931,-0.05059 0.921322,-0.07547 0.293727,-0.02531 0.581964,-0.05588 0.879713,-0.0767 0.214783,-0.01422 0.434514,-0.0173 0.653544,-0.01876 0.196326,-7.26e-4 0.392674,-3.33e-4 0.589005,-8e-5 0.227055,-0.0011 0.450744,0.01315 0.669084,0.03058 0.08913,0.0072 0.177496,0.014 0.264848,0.02294 0.03853,0.01718 -0.04182,0.03367 -0.08035,0.01648 v 0 c -0.08723,-0.0088 -0.175469,-0.01563 -0.264266,-0.02283 -0.217935,-0.01732 -0.441256,-0.03124 -0.667795,-0.02994 -0.196273,-1.6e-4 -0.392565,-6.36e-4 -0.588833,1.6e-4 -0.218575,0.0015 -0.437819,0.0048 -0.652031,0.01917 -0.297418,0.02101 -0.585542,0.05156 -0.879248,0.07672 -0.307625,0.02492 -0.614984,0.05006 -0.921954,0.07567 -0.0419,-0.01646 0.03506,-0.03438 0.07697,-0.01792 z"
     id="path849"
     style="opacity:1;fill:#000000;fill-opacity:1;stroke:#000000;stroke-width:1.93520439;stroke-linecap:round;stroke-linejoin:round;stroke-miterlimit:4;stroke-dasharray:none;stroke-opacity:1" />
</svg>
